<mxfile host="app.diagrams.net" agent="Mozilla/5.0 (Windows NT 10.0; Win64; x64) AppleWebKit/537.36 (KHTML, like Gecko) Chrome/131.0.0.0 Safari/537.36" version="25.0.3">
  <diagram id="C5RBs43oDa-KdzZeNtuy" name="Page-1">
    <mxGraphModel dx="1050" dy="557" grid="1" gridSize="10" guides="1" tooltips="1" connect="1" arrows="1" fold="1" page="1" pageScale="1" pageWidth="827" pageHeight="1169" math="0" shadow="0">
      <root>
        <mxCell id="WIyWlLk6GJQsqaUBKTNV-0" />
        <mxCell id="WIyWlLk6GJQsqaUBKTNV-1" parent="WIyWlLk6GJQsqaUBKTNV-0" />
        <mxCell id="32ry2aj6ZUH-sRgtjtfR-2" value="" style="edgeStyle=orthogonalEdgeStyle;rounded=0;orthogonalLoop=1;jettySize=auto;html=1;" edge="1" parent="WIyWlLk6GJQsqaUBKTNV-1" source="32ry2aj6ZUH-sRgtjtfR-0" target="32ry2aj6ZUH-sRgtjtfR-1">
          <mxGeometry relative="1" as="geometry" />
        </mxCell>
        <mxCell id="32ry2aj6ZUH-sRgtjtfR-0" value="Start" style="ellipse;whiteSpace=wrap;html=1;" vertex="1" parent="WIyWlLk6GJQsqaUBKTNV-1">
          <mxGeometry x="354" width="120" height="80" as="geometry" />
        </mxCell>
        <mxCell id="32ry2aj6ZUH-sRgtjtfR-4" value="" style="edgeStyle=orthogonalEdgeStyle;rounded=0;orthogonalLoop=1;jettySize=auto;html=1;" edge="1" parent="WIyWlLk6GJQsqaUBKTNV-1" source="32ry2aj6ZUH-sRgtjtfR-1" target="32ry2aj6ZUH-sRgtjtfR-3">
          <mxGeometry relative="1" as="geometry" />
        </mxCell>
        <mxCell id="32ry2aj6ZUH-sRgtjtfR-1" value="a" style="rounded=0;whiteSpace=wrap;html=1;" vertex="1" parent="WIyWlLk6GJQsqaUBKTNV-1">
          <mxGeometry x="354" y="120" width="120" height="60" as="geometry" />
        </mxCell>
        <mxCell id="32ry2aj6ZUH-sRgtjtfR-6" value="" style="edgeStyle=orthogonalEdgeStyle;rounded=0;orthogonalLoop=1;jettySize=auto;html=1;" edge="1" parent="WIyWlLk6GJQsqaUBKTNV-1" source="32ry2aj6ZUH-sRgtjtfR-3" target="32ry2aj6ZUH-sRgtjtfR-5">
          <mxGeometry relative="1" as="geometry" />
        </mxCell>
        <mxCell id="32ry2aj6ZUH-sRgtjtfR-3" value="a" style="shape=parallelogram;perimeter=parallelogramPerimeter;whiteSpace=wrap;html=1;fixedSize=1;" vertex="1" parent="WIyWlLk6GJQsqaUBKTNV-1">
          <mxGeometry x="354" y="240" width="120" height="60" as="geometry" />
        </mxCell>
        <mxCell id="32ry2aj6ZUH-sRgtjtfR-8" value="" style="edgeStyle=orthogonalEdgeStyle;rounded=0;orthogonalLoop=1;jettySize=auto;html=1;" edge="1" parent="WIyWlLk6GJQsqaUBKTNV-1" source="32ry2aj6ZUH-sRgtjtfR-5" target="32ry2aj6ZUH-sRgtjtfR-7">
          <mxGeometry relative="1" as="geometry" />
        </mxCell>
        <mxCell id="32ry2aj6ZUH-sRgtjtfR-12" value="ELSE" style="edgeStyle=orthogonalEdgeStyle;rounded=0;orthogonalLoop=1;jettySize=auto;html=1;" edge="1" parent="WIyWlLk6GJQsqaUBKTNV-1" source="32ry2aj6ZUH-sRgtjtfR-5" target="32ry2aj6ZUH-sRgtjtfR-11">
          <mxGeometry relative="1" as="geometry" />
        </mxCell>
        <mxCell id="32ry2aj6ZUH-sRgtjtfR-5" value="a &amp;gt; 5" style="rhombus;whiteSpace=wrap;html=1;" vertex="1" parent="WIyWlLk6GJQsqaUBKTNV-1">
          <mxGeometry x="354" y="340" width="120" height="80" as="geometry" />
        </mxCell>
        <mxCell id="32ry2aj6ZUH-sRgtjtfR-10" value="" style="edgeStyle=orthogonalEdgeStyle;rounded=0;orthogonalLoop=1;jettySize=auto;html=1;" edge="1" parent="WIyWlLk6GJQsqaUBKTNV-1" source="32ry2aj6ZUH-sRgtjtfR-7" target="32ry2aj6ZUH-sRgtjtfR-9">
          <mxGeometry relative="1" as="geometry" />
        </mxCell>
        <mxCell id="32ry2aj6ZUH-sRgtjtfR-7" value="Đạt" style="shape=parallelogram;perimeter=parallelogramPerimeter;whiteSpace=wrap;html=1;fixedSize=1;" vertex="1" parent="WIyWlLk6GJQsqaUBKTNV-1">
          <mxGeometry x="354" y="470" width="120" height="60" as="geometry" />
        </mxCell>
        <mxCell id="32ry2aj6ZUH-sRgtjtfR-9" value="End" style="ellipse;whiteSpace=wrap;html=1;" vertex="1" parent="WIyWlLk6GJQsqaUBKTNV-1">
          <mxGeometry x="354" y="585" width="120" height="80" as="geometry" />
        </mxCell>
        <mxCell id="32ry2aj6ZUH-sRgtjtfR-13" value="" style="edgeStyle=orthogonalEdgeStyle;rounded=0;orthogonalLoop=1;jettySize=auto;html=1;" edge="1" parent="WIyWlLk6GJQsqaUBKTNV-1" source="32ry2aj6ZUH-sRgtjtfR-11" target="32ry2aj6ZUH-sRgtjtfR-9">
          <mxGeometry relative="1" as="geometry" />
        </mxCell>
        <mxCell id="32ry2aj6ZUH-sRgtjtfR-11" value="Không đạt" style="shape=parallelogram;perimeter=parallelogramPerimeter;whiteSpace=wrap;html=1;fixedSize=1;" vertex="1" parent="WIyWlLk6GJQsqaUBKTNV-1">
          <mxGeometry x="560" y="595" width="120" height="60" as="geometry" />
        </mxCell>
      </root>
    </mxGraphModel>
  </diagram>
</mxfile>
